<svg xmlns="http://www.w3.org/2000/svg" width="24" height="24"><g fill="gray"><path fill-opacity=".251" d="M10 22v-8.75c0-1.16-.165-2.257-.48-3.246a7.991 7.991 0 0 0-1.38-2.611 6.352 6.352 0 0 0-2.187-1.75C5.095 5.229 4.11 5 3 5v17z"/><path d="M3 4v1c1.109 0 2.095.23 2.953.643a6.352 6.352 0 0 1 2.188 1.75 7.991 7.991 0 0 1 1.379 2.61c.315.99.48 2.086.48 3.247V22h1v-9.266c0-2.458-.759-4.636-2.125-6.2C7.509 4.968 5.535 4 3 4"/><path d="m2.977 4.053.441.023.047-1.056-.442-.021zm1.388.113.428.063.502.132.24-1.025-.525-.138-.024-.01h-.025l-.453-.069zm1.832.501.172.063.688.353.437-.95-.707-.362-.023-.013-.026-.01-.2-.079zm1.614.922.52.43.204.211.697-.757-.22-.227-.018-.019-.021-.019-.545-.451zm1.367 1.375.166.206.006.01.38.596.83-.59-.386-.606-.014-.023-.017-.02-.196-.25zm.984 1.647.287.726.063.21.955-.315-.07-.235-.008-.023-.008-.022-.297-.746zm.602 1.908.097.48h.002l.06.51.993-.133-.066-.554-.004-.022-.004-.023-.1-.485zm.226 2.002.01.241v.792h1v-.814l-.01-.264zm.01 3.144h1V14.61h-1zm0 2.111h1v-1.055h-1zm0 2.112h1v-1.056h-1zm0 2.111h1v-1.056h-1z"/><path d="M20.006 3.031h-.047l-.467.07.143 1.05.445-.07.502-.022-.047-1.06zm-1.883.381-.025.01-.024.01-.611.232.34.998.578-.222.324-.085-.24-1.029zm-1.666.737-.025.012-.022.015-.699.464-.023.015-.02.017-.096.08.617.833.075-.062.644-.426.035-.02-.437-.954zm-2.049 1.69-.017.018-.018.021-.32.408.77.679.298-.381.344-.356-.697-.76zM13.373 7.29l-.014.024-.011.024-.387.764-.012.024-.01.025-.023.062.922.408.014-.035.363-.716.055-.087-.83-.592zm-1.021 2.567-.006.024-.006.025-.082.404.978.223.078-.385.174-.59-.955-.316zm-.311 1.909-.002.024-.002.02-.027.69 1 .043.027-.673.04-.34-.993-.132zM12 14.64h1v-1.06h-1zm0 2.12h1V15.7h-1zm0 2.12h1v-1.06h-1zm0 2.119h1v-1.06h-1z"/><path d="M4 1 2 3v19.998h20l.006-20.008L22 3h-.002l-.004.006V3h.004l-.004-.006V2.99h-.004L20 1zm0 1h16l.99.99L3 3zM3 4h18v18H3z"/><path fill-opacity=".251" d="M4 2h16l1 1H3Zm10 20v-8.75c0-1.16.165-2.257.48-3.246a7.99 7.99 0 0 1 1.38-2.611 6.351 6.351 0 0 1 2.187-1.75C18.905 5.229 19.89 5 21 5v17z"/><path d="M21 4v1c-1.109 0-2.095.23-2.953.643a6.351 6.351 0 0 0-2.188 1.75 7.99 7.99 0 0 0-1.379 2.61c-.315.99-.48 2.086-.48 3.247V22h-1v-9.266c0-2.457.759-4.636 2.125-6.2C16.491 4.968 18.465 4 21 4"/></g></svg>