<svg xmlns="http://www.w3.org/2000/svg" width="24" height="24" viewBox="0 0 6.35 6.35"><path d="M2.381 1.058v.794h.662v.53h-1.19v.528h-.53v.794h1.323V2.91h-.53v-.264h2.117v.264h-.529v.794h1.323V2.91h-.53v-.529h-1.19v-.529h.662v-.794zm1.323.265v.264H2.646v-.264zm1.058 1.852v.265H3.97v-.265zm-3.174 0h.793v.265h-.793Z" style="color:#000;fill:gray;fill-rule:evenodd;stroke-width:.264583;-inkscape-stroke:none"/><path fill="none" d="M2.248.926v1.058h.662v.266H1.72v.527h-.529v1.059h1.586V2.777h.795v1.059H5.16V2.777h-.53v-.529H3.44v-.264h.663V.926Zm.266.263h1.322v.002H2.513Zm1.322 1.854h.002v.53h-.002zm-2.115.264h.527v.002h-.527Zm2.38 0h.528v.002h-.527Z" style="color:#000;fill:#000;fill-opacity:0;fill-rule:evenodd;-inkscape-stroke:none"/><path d="M1.477.265.75.795.265 4.497v1.058l.485.53H5.6l.485-.53V4.498L5.6.794l-.727-.53ZM4.752.53l.606.396.383 3.307H.61L.992.926 1.598.53ZM.508 4.498h5.335v.873l-.412.45H.919l-.412-.45Zm4.365.794h.486v-.265h-.486Zm-3.64-.265v.265H3.66v-.265Z" style="display:inline;vector-effect:none;fill:gray;fill-opacity:1;fill-rule:evenodd;stroke:none;stroke-width:.279948px;stroke-linecap:butt;stroke-linejoin:miter;stroke-miterlimit:4;stroke-dasharray:none;stroke-dashoffset:0;stroke-opacity:1;marker:none"/></svg>