<svg xmlns="http://www.w3.org/2000/svg" width="24" height="24" viewBox="0 0 6.35 6.35"><path d="M1.477.265.75.795.265 4.497v1.058l.485.53H5.6l.485-.53V4.498L5.6.794l-.727-.53ZM4.752.53l.606.396.383 3.307H.61L.992.926 1.598.53ZM.508 4.498h5.335v.873l-.412.45H.919l-.412-.45Zm4.365.794h.486v-.265h-.486Zm-3.64-.265v.265H3.66v-.265Z" style="display:inline;opacity:1;vector-effect:none;fill:gray;fill-opacity:1;fill-rule:evenodd;stroke:none;stroke-width:.279948px;stroke-linecap:butt;stroke-linejoin:miter;stroke-miterlimit:4;stroke-dasharray:none;stroke-dashoffset:0;stroke-opacity:1;marker:none"/><path d="m5.16 2.495-.442-.254v.181H2.465l.439-.463a.232.232 0 0 1 .136-.052h.369a.22.22 0 0 0 .207.147.22.22 0 0 0 0-.44.22.22 0 0 0-.207.147h-.364a.413.413 0 0 0-.268.118c.002-.002.003-.004 0 0l-.466.491a.232.232 0 0 1-.136.052H1.92a.368.368 0 1 0 0 .146h.806c.05.001.099.022.136.052a3236.834 3236.834 0 0 0 .466.492c.066.063.17.118.268.118h.35v.147h.442v-.44h-.441v.147H3.59a.233.233 0 0 1-.136-.052l-.439-.464H4.72v.182z" style="fill:gray;stroke-width:.00881117;fill-opacity:1"/></svg>