<svg xmlns="http://www.w3.org/2000/svg" width="24" height="24" viewBox="0 0 6.35 6.35"><path d="M1.477.265.75.795.265 4.497v1.058l.485.53H5.6l.485-.53V4.498L5.6.794l-.727-.53ZM4.752.53l.606.396.383 3.307H.61L.992.926 1.598.53ZM.508 4.498h5.335v.873l-.412.45H.919l-.412-.45Zm4.365.794h.486v-.265h-.486Zm-3.64-.265v.265H3.66v-.265Z" style="display:inline;opacity:1;vector-effect:none;fill:gray;fill-opacity:1;fill-rule:evenodd;stroke:none;stroke-width:.279948px;stroke-linecap:butt;stroke-linejoin:miter;stroke-miterlimit:4;stroke-dasharray:none;stroke-dashoffset:0;stroke-opacity:1;marker:none"/><path d="M2.561 1.01h.301l-.92 2.29h-.3Zm2.147 2.496V3.7H2.827v-.194Z" aria-label="/_" style="font-size:3.33248px;fill:gray;fill-rule:evenodd;stroke-width:.198625;stroke-linecap:round;stroke-opacity:0"/></svg>