<svg xmlns="http://www.w3.org/2000/svg" width="24" height="24"><path fill="#3dc3ae" d="M2 24V0h14.285v.015L16.297 0 22 5.988V24zm1-1h18V6h-5V1H3z"/><path fill="#3dc3ae" d="M12.003 5.893c-.243 0-.48.02-.716.048a6.042 6.042 0 0 0-.691.12c-.072.016-.141.051-.215.071-.064.018-.127.028-.19.048-.08.025-.164.045-.24.072-.08.03-.157.063-.238.095-.157.064-.303.14-.453.215-.055.027-.114.043-.167.072-.176.092-.337.2-.501.31-.063.041-.13.074-.19.118l-.073.048c-.071.054-.145.109-.214.167-.082.068-.16.143-.239.215-.024.023-.047.049-.072.072-.008.01-.015.015-.023.024-.013.012-.012.036-.024.048-.16.155-.335.304-.477.477-.004.01.004.019 0 .024a5.9 5.9 0 0 0-.382.524c-.016.024-.032.046-.048.072-.011.018-.035.028-.048.048-.045.075-.077.16-.119.24-.013.024-.034.045-.048.071-.057.112-.114.222-.167.334-.003.01.003.017 0 .024-.09.193-.17.392-.239.596-.014.04-.034.08-.048.12-.002.01.002.016 0 .023-.015.047-.033.095-.048.144a6.148 6.148 0 0 0-.143.595c-.026.147-.057.303-.072.454a6.363 6.363 0 0 0 .048 1.526c.004.031-.005.065 0 .095.033.203.09.4.143.596.02.073.05.142.072.214a6.023 6.023 0 0 0 .286.763c.038.081.078.16.12.239a6.1 6.1 0 0 0 .38.644c.013.018.036.03.049.048.151.214.3.427.477.62.03.033.064.063.095.095.03.032.064.064.096.095.163.163.344.309.525.453.233.186.48.35.74.5.008.01.014.019.023.025.04.023.078.05.119.072.241.119.528.247.716.334.084.032.176.044.262.072.04.014.079.035.12.048.103.032.204.069.31.095.031.01.063.016.095.024.222.052.459.092.69.119.237.027.473.048.717.048a6 6 0 0 0 .763-.048c.278-.037.52-.095.763-.144a6.036 6.036 0 0 0 3.22-2.098c.021-.027.05-.045.071-.072.007-.01.017-.016.024-.024.01-.014.014-.034.024-.048a6.078 6.078 0 0 0 1.025-2.146c.043-.165.09-.33.12-.5.003-.023-.004-.048 0-.072.004-.03.019-.06.023-.095.005-.033.02-.063.024-.095h-.024c.034-.25.072-.503.072-.763a6.26 6.26 0 0 0-.12-1.24c-.006-.032-.016-.062-.023-.094-.035-.16-.094-.323-.143-.477-.003-.01.002-.017 0-.024a2.8 2.8 0 0 0-.024-.072c-.03-.091-.062-.197-.095-.286-.01-.024-.014-.05-.024-.072-.033-.083-.082-.158-.12-.24 0 0 .002-.02 0-.023-.018-.041-.051-.08-.07-.119a5.939 5.939 0 0 0-.24-.453c-.044-.075-.071-.166-.119-.239-.018-.028-.052-.045-.071-.072-.052-.076-.113-.141-.168-.214-.06-.076-.106-.165-.167-.24-.004-.01.004-.018 0-.023-.131-.16-.282-.308-.43-.454-.07-.07-.14-.148-.214-.214-.021-.019-.05-.029-.072-.048a6.2 6.2 0 0 0-.5-.381c-.042-.03-.077-.067-.12-.095-.053-.035-.112-.062-.166-.095-.103-.064-.203-.133-.31-.191a6.13 6.13 0 0 0-.286-.143 5.989 5.989 0 0 0-.501-.215 5.988 5.988 0 0 0-.62-.19A6.041 6.041 0 0 0 12 5.895m0 .763c.228 0 .446.021.668.048.137.017.27.045.405.072h.024c.126.027.258.06.381.095.073.021.143.048.215.072.13.044.255.09.381.144.148.06.29.116.43.19-.024.01-.048.016-.072.024a.243.243 0 0 0-.095.095c-.016.037.004.088 0 .144.029.013.046.068.095.095.02.01.031-.01.048 0 .03.016.054.066.048.095-.008.042-.067.017-.095.048.004.059-.033.08-.048.119.009.025.043.018.048.048-.005.033-.06.038-.048.072.055.043.115-.017.167-.024.114-.015.216.032.286-.024-.01-.054.077-.07.072-.12-.005-.036-.069-.045-.096-.071-.014-.014-.03-.045-.048-.072a1.563 1.563 0 0 0-.071-.095c-.03-.04-.096-.09-.096-.12.001-.033.04-.047.048-.094-.009-.044-.089 0-.095-.048a.118.118 0 0 1 .024-.048 3.2 3.2 0 0 1 .334.214l.072.048c.082.062.158.13.238.19-.05.01-.077.07-.119.12a.35.35 0 0 1-.119.095c-.021.01-.052-.012-.071 0-.029.019-.04.073-.072.095-.024.016-.095.072-.12.072-.028 0-.074-.031-.095-.024-.03.01-.013.058-.048.072-.067.024-.19-.052-.214.048.029.058.117.039.167.072.032.02.087.11.095.143a.492.492 0 0 1 0 .167c-.03.081-.12.074-.214.072h-.072c-.158-.01-.31-.065-.381.048.005.086.019.14 0 .215-.014.055-.074.095-.072.143.001.024.042.063.048.095.004.017-.008.056 0 .072.026.051.097-.01.143 0 .045.01.097.092.096.143a.262.262 0 0 1-.048.12c-.045.067-.128.058-.191.094-.053.03-.064.091-.095.144-.034.057-.062.085-.048.167a.37.37 0 0 1-.191.19c-.029.014-.07.03-.096.049a.5.5 0 0 0-.071.072c-.036.039-.077.065-.096.095-.014.024-.007.064-.023.095-.023.043-.068.076-.096.119-.013.02-.033.045-.048.072-.032.059-.077.115-.072.167.006.05.068.052.072.095.003.024-.025.045-.024.072.001.038.021.065.024.095.008.076-.034.09-.048.143-.007.024.006.052 0 .072-.012.038-.071.075-.072.12 0 .031.045.073.048.118.002.03-.029.044-.023.072.01.056.123.124.167.168.057.057.118.106.143.167.02.052.032.128.072.167.03.028.08.04.12.072.035.028.08.042.118.072.062.049.14.15.239.143.052-.01.108-.038.167-.048.06-.011.13-.03.19-.024.047.01.095.051.144.048.051 0 .11-.046.167-.072.101-.044.26-.117.406-.095.111.016.113.165.19.214.09.01.168-.04.24-.024.053.013.113.101.118.144.006.045-.04.092-.048.119-.013.059-.013.129-.023.167-.009.029-.025.065-.024.095a.41.41 0 0 0 .072.143c.033.043.078.073.119.12.066.082.118.18.167.285.013.028-.012.06 0 .095-.022.171-.079.288-.19.477-.054.061-.121.115-.12.191-.004.183.104.3.095.477-.018.238.019.254 0 .381.08.04.024.178 0 .263-.034.1-.076.123-.095.19.054.024.13.015.19 0 0 0 .074.306.073.31a5.345 5.345 0 0 1-2.242 1.311c-.42.102-.545.102-.74.144a4.87 4.87 0 0 1-1.335.048c-.14-.014-.27-.047-.406-.072-.04-.01-.079-.015-.119-.024-.124-.042-.268-.067-.381-.095a5.477 5.477 0 0 1-.382-.12c.01-.01.02-.01.024-.023.007-.031.001-.047 0-.095.011-.05.06-.045.072-.095-.022-.037-.064-.03-.096-.048a.101.101 0 0 1-.048-.095c.054-.022.153.05.19-.024.02-.035-.025-.108 0-.144.018-.024.13-.042.168-.048.054-.01.113-.01.143-.024a.17.17 0 0 0 .072-.143c-.003-.03-.025-.045-.048-.072-.019-.022-.01-.051-.024-.072-.023-.036-.06-.044-.071-.095.073-.015.18.078.286.048.05-.015.12-.144.143-.19.008-.016-.007-.032 0-.049.01-.02.045-.037.048-.048.008-.027-.006-.054 0-.072.019-.052.065-.057.096-.095l.072-.095c.023-.032.032-.068.048-.096.015-.093-.046-.157-.024-.239.024-.092.15-.126.239-.167.03-.015.07-.038.095-.048.061-.02.135-.027.191-.048.095-.035.12-.127.167-.214a.463.463 0 0 0 .048-.12c.004-.026-.005-.04 0-.071.005-.031.016-.062.024-.095a.848.848 0 0 0 .024-.167c0-.04-.023-.06-.024-.095-.007-.132.046-.167.095-.24.025-.035.03-.07.048-.094.083-.123.226-.173.215-.358-.004-.06-.027-.195-.072-.214-.026-.011-.082-.01-.119-.024-.12-.045-.21-.206-.334-.215-.027 0-.042.024-.072.024-.05 0-.112-.04-.167-.048-.035-.01-.099.01-.12 0-.031-.015-.021-.078-.047-.095-.02-.014-.064-.01-.096-.024-.05-.019-.085-.043-.143-.048h-.072c-.032-.01-.065-.03-.095-.048-.037-.022-.057-.039-.072-.072.034-.11-.073-.127-.095-.19-.011-.03.01-.07 0-.095-.013-.038-.055-.064-.096-.095-.074-.057-.133-.106-.239-.12-.046-.01-.11 0-.167 0a.299.299 0 0 1-.167-.094c-.043-.05-.058-.095-.095-.12-.036-.022-.095-.023-.12-.047-.01-.01-.012-.024-.023-.048-.018-.037-.047-.075-.024-.12-.04-.02-.026.056-.071.049-.04-.057-.077-.088-.167-.072-.042.01-.071.045-.12.048-.04 0-.067-.04-.119-.048-.04-.01-.091.028-.119.024-.043-.01-.055-.045-.095-.072-.029-.02-.08-.072-.095-.072-.052 0-.097.109-.168.072-.034-.044.065-.054.024-.096-.03-.031-.046.01-.072.024a.5.5 0 0 1-.095.048c-.07.026-.112.019-.167.048-.05.026-.067.067-.096.119-.023.043-.06.116-.095.119-.043 0-.08-.055-.119-.072-.117-.051-.19.023-.286.024-.09 0-.22-.13-.215-.215.003-.052.042-.126.048-.19.005-.051.048-.097.049-.144 0-.062-.103-.112-.144-.119-.095-.017-.225.046-.334 0-.02-.034.036-.062.048-.095.007-.019-.007-.026 0-.048.012-.032.056-.06.072-.095.011-.026.012-.063.023-.095.013-.037.045-.069.048-.095.004-.034-.02-.072-.048-.095-.084.01-.142 0-.19.024-.11.051-.081.203-.191.24-.038.011-.102.015-.144.023-.036.01-.081.024-.119.024a.273.273 0 0 1-.143-.072.152.152 0 0 1-.024-.048c.002-.01-.001-.016 0-.024.035-.17.071-.339.12-.5.001-.01-.003-.017 0-.024.031-.106.078-.206.118-.31.01-.01.015-.018.024-.024.059-.04.119-.091.19-.095.044 0 .126.016.168.024.038.01.062.045.095.048.094.01.114-.08.191-.12.08.012.119-.01.19 0 .05.01.106.07.144.073.032 0 .04-.052.072-.048.03.01.09.082.095.119.006.045-.036.093-.023.143.048.05.145.043.214.072.045-.037.007-.09 0-.143-.001-.024.003-.051 0-.072-.004-.037-.024-.064-.024-.095 0-.145.118-.23.215-.286.042-.025.082-.052.119-.072.051-.026.076-.048.119-.072.077-.044.154-.07.214-.12.029-.064-.003-.149 0-.214.029-.017.042 0 .072 0 .047-.01.069-.07.096-.095.015-.016.052-.033.071-.048.047-.037.055-.08.096-.095.014-.01.049-.013.071-.024.031-.01.07-.03.12-.048.032-.01.106-.01.119-.024.015-.016-.005-.072 0-.095.024-.115.207-.128.31-.167.071-.027.135-.087.214-.072-.015.055-.084.03-.072.095.018.092.134-.01.167-.024.062-.026.181-.042.263-.072.071-.026.187-.06.119-.143-.057 0-.07.05-.12.072-.033.01-.042-.021-.071-.024-.027 0-.043.029-.072.024-.028-.01-.067-.063-.071-.095-.012-.085.083-.104.119-.167-.023-.077-.127-.018-.191-.048a.114.114 0 0 1 .095-.095c.044-.01.141.01.167.024.016.013 0 .05.024.072.026.024.062.01.095 0 .013-.058-.08-.033-.071-.072.068-.045.202-.012.286-.024.048-.01.1-.047.143-.072.041-.023.076-.062.12-.024.012.04-.025.05-.049.072-.078.07-.154.158-.214.238.037.037.104.017.167.024.024 0 .046.02.072.024.03.01.071-.01.095 0 .043.011.053.072.095.072.07 0 .064-.095.024-.143.012-.048.04-.061.024-.095-.032-.063-.161.01-.167-.072-.004-.052.053-.058.071-.095-.008-.099.081-.103.072-.19-.004-.038-.046-.039-.072-.073-.013-.018-.007-.058-.023-.072-.054-.045-.16-.034-.167-.119-.003-.05.007-.088 0-.143-.007-.052-.05-.205-.096-.215-.057-.012-.098.087-.167.12a.302.302 0 0 1-.143.023c-.025-.01-.068-.024-.072-.072-.005-.053.038-.063.048-.119-.008-.034-.039-.022-.072-.048-.037-.028-.07-.088-.119-.095-.025 0-.07.022-.095.024a.347.347 0 0 1-.12-.024.246.246 0 0 1 .049-.024c.093-.032.19-.045.286-.072.017-.01.031-.019.048-.024.024.025.043.08.072.095.019.01.048-.01.072 0 .074.023.132.065.214.048.028-.05-.056-.057-.024-.095.055.01.101.031.144.048.059-.043.097-.05.095-.119 0-.035-.047-.048-.072-.072.049-.01.095-.017.144-.024.004.013.016.023.024.024.029.01.126-.039.143-.048.003 0-.004-.02 0-.024a5.88 5.88 0 0 1 .596-.024m-1.908.358c-.017.033-.036.06-.072.072.01.05-.064.08-.071.12a.422.422 0 0 0 0 .094c.015.244-.192.364-.43.358-.046.045-.022.13-.048.19-.021.052-.092.1-.143.096-.039 0-.096-.06-.096-.095 0-.044.062-.07.024-.12.005-.032.08-.065.072-.118-.01-.057-.074-.015-.144-.024a.872.872 0 0 1-.143-.048c.077-.052.156-.096.238-.144a4.736 4.736 0 0 1 .81-.381m4.103.572c-.02 0-.03.014-.048.024-.04.024-.042.06-.072.072-.041.016-.09.01-.095.048-.005.031.025.042.023.072-.015.038-.04.051-.048.095.052.084.175-.01.239-.024.029-.01.056 0 .072-.024.017-.027.01-.08.023-.119.015-.043.053-.033.048-.072-.004-.038-.08-.078-.143-.072m-5.58.596c.046.012.149.147.047.19a.637.637 0 0 1-.167.025c-.035-.01-.06-.065-.095-.072-.07-.012-.167.077-.215 0 .013-.045.066-.033.12-.048.095-.026.227-.117.31-.095m.19.238c.024 0 .043.045.072.048.027 0 .055-.028.071-.024.043.011.065.088.024.12-.033 0-.046-.029-.072-.025-.069.012-.091.148-.143.144-.049-.01-.073-.108-.024-.144.002-.03-.025-.04-.023-.072.015-.019.055-.05.095-.048m-.239.024h.024c-.007.054-.03.07-.072.095a.29.29 0 0 0-.143.191c-.007.027-.085.102-.12.095-.08-.017.03-.168.049-.19.02-.026.047-.044.071-.073.023-.028.026-.08.048-.095a.341.341 0 0 1 .144-.024m7.25.024c.036.01.044.052.071.072.021.014.05.01.072.024.027.017.041.046.072.072a.79.79 0 0 0 .167.095c.012.01.034.018.048.024.042.054.08.111.12.167.004.031.008.076.023.095.04.054.1.101.143.167 0 .063.028.102.072.12.056.094.114.189.167.286.022.044.027.098.048.143-.016 0-.033.01-.048 0-.05-.089-.312-.106-.334.024-.01.057.037.133-.048.143-.054.01-.117-.056-.191-.072-.03-.01-.072.011-.095 0-.056-.019-.048-.086-.096-.119a.412.412 0 0 0-.143-.048h-.072c-.034-.01-.09-.01-.119-.024-.027-.017-.089-.047-.095-.072-.011-.038.068-.087.071-.119.002-.024-.017-.034-.023-.072-.004-.022.004-.057 0-.072-.008-.026-.054-.047-.096-.048-.036 0-.064.023-.095.024-.045.001-.135-.028-.19-.024-.034 0-.065.021-.096.024-.089.01-.146-.01-.215 0a.583.583 0 0 0-.19.048c-.024.01-.042.033-.072.048-.014.01-.03.016-.048.024-.03.013-.068.04-.096.048-.04.01-.094 0-.167 0-.052 0-.143-.01-.143-.072-.001-.094.173-.055.262-.072.034-.01.056-.048.096-.072.019-.01.03-.01.048-.024.03-.02.09-.07.095-.095.005-.023-.027-.055-.024-.072.004-.02.044-.045.072-.072.043-.042.067-.092.12-.119.035-.019.102-.018.118-.048.004-.033 0-.042 0-.072.022-.02.03-.044.048-.048.055-.012.103.027.168.024a.25.25 0 0 0 .095-.024c.025-.017.047-.034.072-.048.026-.014.039-.045.071-.048.08-.01.13.095.167.144a.69.69 0 0 0 .168.119c.028.016.064.034.095.048.066.03.189.126.19.19.002.032-.028.041-.023.072.05.01.094-.046.096-.095 0-.03-.03-.038-.024-.072.024-.05.113-.01.143-.024-.005-.058-.094-.065-.143-.095-.026-.016-.044-.037-.072-.048-.04-.016-.088-.024-.119-.048-.029-.022-.043-.06-.072-.095-.04-.049-.12-.056-.095-.167.012-.016.028-.052.048-.048m-6.725.167h.071c.026.001.061-.014.072 0-.017.067-.162.048-.214.024.003-.025.038-.02.071-.024m-.239.12c.018 0 .03-.01.049 0a.552.552 0 0 1-.191.095c-.04.012-.089.019-.096-.024-.008-.052.036-.043.072-.048.044-.01.115-.022.167-.024m6.63 0c-.032.01-.05.086 0 .095.024-.014.03-.052.024-.095-.013-.014-.013 0-.024 0m-.023.143c-.016.01-.03.01-.048.024 0 .057.011.094 0 .143.032.063.102.02.119-.024.02-.106-.023-.156-.072-.143m.334.286a.276.276 0 0 0 .191.119c.03-.023.034-.08.048-.119h-.119c-.045 0-.093-.021-.119 0m-8.92 2.05c.126-.01.162.165.263.215.025.013.063.017.095.024l.072.024c.054.018.124.01.167.024.065.029.112.158.167.19.003.034-.01.072 0 .096.027.036.076.049.12.072.051.028.07.097.118.119.017.01.045-.01.072 0 .067.02.086.112.144.095.038-.01.042-.06.048-.095.025-.027.056-.071.095-.072.063 0 .073.057.096.119.013.035.038.082.048.118a.942.942 0 0 1 0 .287c-.016.046-.081.068-.12.119-.018.024-.033.054-.048.072-.024.03-.052.044-.071.072-.01.016-.014.05-.024.072-.03.065-.073.113-.048.19.01.032.047.058.048.095 0 .045-.088.071-.095.12-.006.035.036.095.048.143.008.036.074.072.095.095.036.04.063.092.096.143.064.1.103.214.167.31.033.051.097.091.119.143.011.027-.01.072 0 .095.036.082.203.174.286.215.039.019.084 0 .119.024.054.03.163.12.19.167.025.043.037.147.049.214.016.09-.004.166 0 .263.003.052.023.09.023.143v.072c-.001.063.006.126 0 .19a.563.563 0 0 0 0 .096c.004.032.022.044.024.072.002.03-.027.072-.024.095.007.064.06.108.072.167a.91.91 0 0 1 .024.214c-.004.03-.02.063-.024.095-.003.025.004.047 0 .072-.004.036-.026.062-.023.095.004.069.06.122.071.19.004.024 0 .05 0 .073.001.02.018.029.024.048a5.33 5.33 0 0 1-.572-.382 5.387 5.387 0 0 1-.501-.43c-.008-.01-.016-.015-.024-.023a5.52 5.52 0 0 1-.453-.5c-.08-.101-.166-.204-.239-.31a3.39 3.39 0 0 1-.119-.191l-.072-.119a5.028 5.028 0 0 1-.19-.358c-.038-.077-.062-.158-.096-.239a5.14 5.14 0 0 1-.214-.572c-.041-.14-.066-.283-.096-.43-.023-.11-.055-.22-.071-.333a4.15 4.15 0 0 1-.024-.191 5.426 5.426 0 0 1 .024-1.216v-.024c.048 0 .114-.07.168-.072m2.05.572c.05-.022.065.09.025.095-.039.01-.062-.078-.024-.095"/></svg>