<svg xmlns="http://www.w3.org/2000/svg" width="24" height="24"><path fill="#e71919" d="M6.99 4.697c-.199.012-.35.051-.65.168-1.805.755-.687 3.233 1.858 5.084-.166 1.65-.44 3.524-.795 5.088-1.987 1.26-3.169 3.05-2.496 3.905a.792.792 0 0 0 .377.271l-.004.017a.535.535 0 0 0 .266.076l.004-.029c.065.012.127.036.199.027a1.25 1.25 0 0 0 .404-.13c.85-.428 1.922-1.79 2.489-3.167 1.738-.987 4.07-2.114 6.111-3.021 1.09.41 2.71.929 3.605.761.167 0 .735-.482.891-.87l.022-.097c.093-.591-.364-1.404-1.096-1.564-1.165-.26-2.89.364-3.703.642A33.532 33.532 0 0 1 9.579 9.29c-.11-2.22-1.257-4.446-2.392-4.574-.063-.012-.132-.012-.198-.012v-.01zm-.14.14a.925.925 0 0 1 .432.071c.767.332 1.033 1.751 1.059 3.594-2.153-1.505-3.416-2.955-2.012-3.537a1.6 1.6 0 0 1 .522-.13zm2.657 5.743c1.168.75 2.278 1.402 3.592 1.926-1.365.607-2.805 1.383-4.116 2.145.257-2.023.31-2.523.524-4.07zm8.672 1.414c.224-.01.437.01.617.057.305.087.39.386.404.74-.288.534-2.415.198-3.31-.367.045-.019.112-.062.156-.08.245-.089.718-.18 1.45-.28.224-.034.459-.062.683-.069zM7.089 16.89l.008.01c-.485 1.36-1.092 2.305-1.602 2.35a.639.639 0 0 1-.178-.056c-.03-.022-.064-.044-.087-.066-.739-.698.95-1.689 1.859-2.234z"/><path fill="#e71919" d="M2 24V0h14.285v.015L16.297 0 22 5.988V24zm1-1h18V6h-5V1H3z"/></svg>