<svg xmlns="http://www.w3.org/2000/svg" width="24" height="24"><path fill="#b17d4f" d="M2 24V0h14.285v.015L16.297 0 22 5.988V24zm1-1h18V6h-5V1H3z"/><path fill="#b17d4f" d="M11 6v1.105a5 5 0 0 0-1.754.727l-.781-.781L7.05 8.465l.781.781A5 5 0 0 0 7.102 11H6v2h1.105a5 5 0 0 0 .727 1.754l-.781.781 1.414 1.414.781-.781a5 5 0 0 0 1.754.73V18h2v-1.105a5 5 0 0 0 1.754-.727l.781.781 1.414-1.414-.781-.781a5 5 0 0 0 .73-1.754H18v-2h-1.105a5 5 0 0 0-.727-1.754l.781-.781-1.414-1.414-.781.781A5 5 0 0 0 13 7.102V6zm1 3a3 3 0 0 1 3 3 3 3 0 0 1-3 3 3 3 0 0 1-3-3 3 3 0 0 1 3-3"/></svg>