<svg xmlns="http://www.w3.org/2000/svg" width="24" height="24"><path fill="#40c0a0" d="M2 24V0h14.285v.015L16.297 0 22 5.988V24zm1-1h18V6h-5V1H3z"/><path fill="#40c0a0" d="M12 14.998h5v1h-5zm-4-8h1v9H8z"/><path fill="#40c0a0" d="M8.287 14.181q1.453 0 1.453-.994 0-.306-.133-.517-.125-.22-.345-.373-.22-.162-.506-.277-.278-.115-.593-.23-.364-.124-.689-.277-.325-.162-.564-.373-.24-.22-.383-.516-.133-.297-.133-.717 0-.87.592-1.358.593-.488 1.636-.488.602 0 1.09.134.497.124.727.277l-.297.756q-.2-.125-.602-.24-.392-.124-.918-.124-.268 0-.498.057-.23.057-.401.172-.172.115-.278.297-.095.172-.095.411 0 .268.105.45.105.181.296.325.192.133.44.248.259.115.565.23.43.172.784.344.363.172.621.411.268.24.411.574.144.325.144.794 0 .87-.64 1.338-.632.469-1.789.469-.392 0-.727-.057-.325-.048-.583-.115-.258-.077-.45-.153-.181-.086-.286-.143l.277-.765q.22.124.67.277.449.153 1.099.153"/></svg>