<svg xmlns="http://www.w3.org/2000/svg" width="24" height="24"><path fill="#e5641b" d="M2 24V0h14.285v.015L16.297 0 22 5.988V24zm1-1h18V6h-5V1H3z"/><path fill="#e5641b" d="M11 7H5v10h5v1H9v1h6v-1h-1v-1h5V7h-6c0-1 0-1-1-1s-1 0-1 1M6 8h12v8H6zm5 9h2v1h-2z"/><path fill="#e5641b" d="M13.026 9.552A2.75 2.75 0 0 0 12 9.35a2.75 2.75 0 0 0-2.75 2.75A2.75 2.75 0 0 0 12 14.85a2.75 2.75 0 0 0 2.75-2.75 2.75 2.75 0 0 0-.031-.394l-2.745.445z"/><path fill="#e5641b" fill-opacity=".502" d="m13.622 9.09-1.052 2.598 2.744-.445a2.75 2.75 0 0 0-1.692-2.154z"/></svg>