<svg xmlns="http://www.w3.org/2000/svg" width="24" height="24"><path fill="#93a060" d="M2 24V0h14.285v.015L16.297 0 22 5.988V24zm1-1h18V6h-5V1H3z"/><path fill="#93a060" d="M4 2v4h3V2zm1 1h1v2H5zm3-1.002h1v4H8zM10 2v4h3V2zm1 1h1v2h-1zm3-1.002h1v4h-1zm-10 5h1v4H4zm2 0h1v4H6zm-2 5h1v4H4zM9 7v4h3V7zm1 1h1v2h-1zm3-1v4h3V7zm1 1h1v2h-1zm5-1.002h1v4h-1zm-13 5h1v4H6zm2 0h1v4H8zM10 12v4h3v-4zm1 1h1v2h-1zm6-1v4h3v-4zm1 1h1v2h-1zm-3-1.002h1v4h-1zm2-5h1v4h-1zM4 17v4h3v-4zm1 1h1v2H5zm12-1v4h3v-4zm1 1h1v2h-1zm-5-1v4h3v-4zm1 1h1v2h-1zm-6-1.002h1v4H8zm3 0h1v4h-1z"/></svg>