<svg xmlns="http://www.w3.org/2000/svg" width="24" height="24"><path fill="#40c0a0" d="M2 24V0h14.285v.015L16.297 0 22 5.988V24zm1-1h18V6h-5V1H3z"/><path fill="#40c0a0" d="M6.109 11.577q.282 0 .481-.094.2-.105.33-.258.14-.164.199-.364.07-.211.07-.423V8.325q0-.482.106-.857.106-.376.364-.623.258-.258.68-.387.435-.14 1.07-.14h.046v.856q-.669 0-.963.247-.281.235-.281.916v1.808q0 .775-.212 1.197-.2.423-.575.658.376.235.575.657.212.423.212 1.198v1.808q0 .681.281.916.294.246.963.246v.858h-.047q-.634 0-1.068-.13-.423-.129-.681-.387-.258-.258-.364-.634-.106-.376-.106-.857V13.56q0-.21-.07-.41-.059-.212-.2-.365-.129-.164-.329-.258-.2-.105-.481-.105zm6.542 2.595q.012.094.012.188v.176q0 .74-.223 1.456-.212.728-.587 1.385l-.846-.27q.294-.598.388-1.22.094-.611.094-1.151 0-.153-.012-.294 0-.14-.012-.27zm.14-3.98q0 .317-.21.552-.212.235-.576.235t-.575-.235q-.211-.235-.211-.552 0-.317.21-.552.212-.235.576-.235t.576.235q.21.235.21.552m5.099 2.231q-.282 0-.481.105-.2.094-.34.259-.13.152-.2.364-.059.2-.059.41v2.114q0 .481-.106.857-.105.376-.364.634-.258.258-.692.388-.423.129-1.057.129h-.047v-.857q.67 0 .951-.247.294-.235.294-.916v-1.808q0-.775.2-1.197.21-.423.586-.658-.375-.235-.587-.657-.2-.423-.2-1.198V8.337q0-.681-.293-.916-.282-.247-.951-.247v-.857h.047q.634 0 1.057.141.434.13.692.388.259.246.364.622.106.376.106.857v2.113q0 .212.059.423.07.2.2.364.14.153.34.258.2.094.481.094z"/></svg>