<svg xmlns="http://www.w3.org/2000/svg" width="24" height="24"><path fill="#b24e4e" d="M12 5a7 7 0 0 0-7 7 7 7 0 0 0 7 7 7 7 0 0 0 7-7 7 7 0 0 0-7-7m0 1a6 6 0 0 1 6 6 6 6 0 0 1-6 6 6 6 0 0 1-6-6 6 6 0 0 1 6-6"/><path fill="#b24e4e" d="M12 10a2 2 0 0 0-2 2 2 2 0 0 0 2 2 2 2 0 0 0 2-2 2 2 0 0 0-2-2m0 1a1 1 0 0 1 1 1 1 1 0 0 1-1 1 1 1 0 0 1-1-1 1 1 0 0 1 1-1"/><path fill="#b24e4e" fill-opacity=".502" d="M12 7a5 5 0 0 0-5 5h2a3 3 0 0 1 3-3zm3 5a3 3 0 0 1-3 3v2a5 5 0 0 0 5-5z"/><path fill="#b24e4e" d="M2 24V0h14.285v.015L16.297 0 22 5.988V24zm1-1h18V6h-5V1H3z"/></svg>