<svg xmlns="http://www.w3.org/2000/svg" width="24" height="24"><path fill="#4db375" d="M2 24V0h14.285v.015L16.297 0 22 5.988V24zm1-1h18V6h-5V1H3z"/><path fill="#4db375" d="M4 4v16h16V7h-5V4zm1.006 1h8.996v2H5.006zm-.012 3H9v1H4.994ZM10 8h3.998v1H10Zm5.009 0H19v1h-3.991ZM4.994 10H9v1H4.994ZM10 10h3.998v1H10Zm5.009 0H19v1h-3.991zM4.994 12H9v1H4.994ZM10 12h3.998v1H10Zm5.009 0H19v1h-3.991zM4.994 14H9v1H4.994ZM10 14h3.998v1H10Zm5.009 0H19v1h-3.991zM4.994 16H9v1H4.994ZM10 16h3.998v1H10Zm5.009 0H19v1h-3.991zM4.994 18H9v1H4.994ZM10 18h3.998v1H10Zm5.009 0H19v1h-3.991z"/></svg>