<svg xmlns="http://www.w3.org/2000/svg" width="128" height="128" fill="#fff" viewBox="0 0 3.84 3.84"><path d="M2.145 1.92a.225.225 0 0 1-.225.225.225.225 0 0 1-.225-.225.225.225 0 0 1 .225-.225.225.225 0 0 1 .225.225m.184.408a4.403 4.403 0 0 1-.414.37 5.51 5.51 0 0 1-.414-.37 4.402 4.402 0 0 1-.37-.414A4.402 4.402 0 0 1 1.5 1.5a5.492 5.492 0 0 1 .414-.37 5.492 5.492 0 0 1 .414.37 4.391 4.391 0 0 1 .37.414 3.658 3.658 0 0 1-.37.414m.125-.948a5.115 5.115 0 0 0-.395-.357c.37-.27.715-.433.954-.433a.236.236 0 0 1 .176.056c.138.138.03.534-.295 1.01H3.1a3.137 3.137 0 0 0 .175-.307c.176-.376.189-.665.038-.822a.457.457 0 0 0-.307-.106c-.402 0-1.042.376-1.625.96a5.115 5.115 0 0 0-.358.395C.635 1.242.504.79.648.646A.246.246 0 0 1 .823.59c.214 0 .515.132.835.351v-.2C1.344.534 1.049.42.823.42a.404.404 0 0 0-.295.106C.372.684.391.973.566 1.35c.163.351.458.74.816 1.104a5.115 5.115 0 0 0 .395.358c-.364.27-.715.433-.954.433a.236.236 0 0 1-.175-.057C.51 3.05.617 2.655.943 2.178H.742a3.146 3.146 0 0 0-.176.307c-.176.377-.188.666-.038.822a.404.404 0 0 0 .295.107c.402 0 1.042-.376 1.625-.96a5.1 5.1 0 0 0 .358-.395c.388.533.52.985.376 1.129a.236.236 0 0 1-.176.056c-.213 0-.514-.131-.834-.35V3.1c.32.201.615.32.834.32a.404.404 0 0 0 .295-.106c.157-.157.138-.446-.037-.822-.157-.358-.452-.747-.81-1.11Z" style="fill:#000;stroke-width:.124997"/></svg>