<svg xmlns="http://www.w3.org/2000/svg" xml:space="preserve" style="enable-background:new 0 0 293.4 216.1" viewBox="0 0 293.4 216.1"><path d="M265.2 0H40.7L0 40.7v175.4h252.7l40.7-40.7V0z" style="fill:#41cd52"/><path d="M109.2 169.2c-19.3 0-32.8-5.2-40.4-15.6-7.6-10.4-11.4-26.9-11.4-49.3 0-22.5 3.9-39.2 11.6-50.1 7.7-10.9 21.2-16.4 40.2-16.4 19.1 0 32.5 5.4 40.1 16.3 7.7 10.8 11.5 27.5 11.5 50.1 0 14.9-1.6 26.9-4.7 36-3.2 9.2-8.3 16.2-15.5 21l15.6 25.1-19.1 8.9-16.5-27.1c-2.4.8-6.2 1.1-11.4 1.1m-24.1-28.9c4.2 7.2 12.3 10.9 24.2 10.9s19.9-3.6 24.1-10.7c4.1-7.1 6.2-19.2 6.2-36.1 0-17-2.1-29.3-6.4-37S121 55.9 109.3 55.9c-11.6 0-19.6 3.8-24 11.5-4.3 7.7-6.5 19.9-6.5 36.8 0 16.8 2.1 28.9 6.3 36.1m147.3-51.1h-25.6v40.9c0 7.6.6 12.6 1.7 15.1s4 3.7 8.5 3.7l15.2-.6.9 16.2c-8.3 1.6-14.6 2.4-19 2.4-10.5 0-17.7-2.4-21.6-7.2-3.9-4.8-5.9-13.9-5.9-27.3V89.3h-14.1V72h14.2V45.1h20.1V72h25.6z" style="fill:#fff"/></svg>