<svg xmlns="http://www.w3.org/2000/svg" width="32" height="32"><g data-name="Layer 2"><g stroke="#000" stroke-width=".35" data-name="Layer 1"><path d="M16.001 4A12 12 0 1 0 28 16 12.011 12.011 0 0 0 16.001 4m0 23.686A11.687 11.687 0 1 1 27.687 16 11.698 11.698 0 0 1 16 27.686"/><path d="M23.257 9.489h-5.745a.305.305 0 0 0-.305.305v3.858a2.98 2.98 0 0 1-.709 1.93L14.353 18.1a2.945 2.945 0 0 0-.701 1.907V23.9a7.244 7.244 0 0 1-4.894-6.854V9.802h7.61v4.007a1.912 1.912 0 0 1-.504 1.295l-1.836 2.067a.295.295 0 1 0 .234.209l1.833-2.065a2.225 2.225 0 0 0 .585-1.505V9.788a.3.3 0 0 0-.3-.3H8.75a.305.305 0 0 0-.306.306v7.254a7.558 7.558 0 0 0 5.118 7.155.305.305 0 0 0 .401-.289v-3.906a2.632 2.632 0 0 1 .627-1.704l2.142-2.52a3.295 3.295 0 0 0 .785-2.132v-3.85h5.73v7.246a7.24 7.24 0 0 1-8.447 7.144v-4.185a1.797 1.797 0 0 1 .427-1.163l2.143-2.52a4.13 4.13 0 0 0 .983-2.673V11.04a.295.295 0 1 0-.313 0v2.611a3.818 3.818 0 0 1-.909 2.47l-2.142 2.52a2.11 2.11 0 0 0-.502 1.365v4.19a.304.304 0 0 0 .253.3 7.554 7.554 0 0 0 8.821-7.45V9.793a.305.305 0 0 0-.304-.304"/></g></g></svg>