<svg xmlns="http://www.w3.org/2000/svg" xml:space="preserve" width="144" height="144"><path fill="none" d="M0 0h144v144H0z"/><path fill="#868482" d="M72 144C32.5 144 .2 111.9 0 72.4-.2 32.7 31.9.2 71.6 0h.7c19.1.1 37.1 7.6 50.6 21.1s21 31.5 21.1 50.5c.1 19.2-7.3 37.4-20.8 51-13.5 13.7-31.6 21.3-50.8 21.4zm4.3-42.7v32.3c9-8.1 16-17.9 20.6-28.7-6.7-2-13.6-3.2-20.6-3.6M47 104.9c3.2 7.4 7.5 14.3 12.8 20.6 2.4 2.9 5.1 5.6 7.9 8.1v-32.3c-7 .4-13.9 1.6-20.7 3.6m58.2 3c-3.9 9.2-9.2 17.6-15.9 25.1 10.4-2.9 19.9-8.5 27.8-16.4.5-.5 1-1.1 1.6-1.6-4.4-2.9-8.9-5.2-13.5-7.1m-79.7 7c7.8 8.5 17.9 14.8 29.3 18-.5-.6-1.1-1.2-1.6-1.8-6-7.1-10.8-14.9-14.3-23.3-4.7 2-9.1 4.3-13.4 7.1m82.6-15.2c5.5 2.3 10.8 5.1 15.9 8.4 6.5-9.4 10.4-20.3 11.2-31.8h-22.9c-.1 1.2-.1 2.4-.2 3.7-.7 6.8-2 13.4-4 19.7M8.8 76.3C9.6 88.1 13.6 99 20 108.1c5.1-3.3 10.4-6.1 15.8-8.4-2.4-7.5-3.7-15.4-4.1-23.4zm31.6 0c.3 7 1.5 13.8 3.6 20.4 7.7-2.4 15.7-3.8 23.7-4.1V76.3zm35.9 16.3c8 .4 15.9 1.7 23.6 4.1 1.7-5.6 2.9-11.5 3.4-17.5.1-1 .1-2 .2-2.9H76.3zm35.9-24.9h23c-.8-11.5-4.6-22.4-11.2-31.8-5.1 3.4-10.5 6.2-16.1 8.5 2.5 7.5 3.9 15.3 4.3 23.3m-35.9 0h27.2c-.4-7-1.6-13.8-3.7-20.4-7.7 2.4-15.5 3.7-23.5 4.1zm-35.8 0h27.2V51.4c-7.9-.4-15.8-1.7-23.4-4.1-1.8 5.8-3 11.9-3.6 18.1-.1.8-.2 1.5-.2 2.3m-31.7 0h23c.1-1 .1-2 .2-3 .6-7 2-13.8 4-20.3-5.5-2.3-10.9-5.1-16-8.5-6.4 9.1-10.4 20-11.2 31.8m67.5-56.6v31.6c6.9-.3 13.7-1.5 20.4-3.5-3.1-7.1-7.3-13.9-12.5-20-2.4-2.9-5.1-5.6-7.9-8.1m-29 28.1c6.7 2 13.5 3.2 20.4 3.5V11.1C58.8 19 51.9 28.6 47.3 39.2m41.1-28.4c.8.9 1.6 1.8 2.4 2.8 5.9 6.9 10.6 14.6 14.1 22.7 4.7-2 9.3-4.3 13.7-7.2-.6-.6-1.2-1.2-1.8-1.9-8-8-17.8-13.6-28.4-16.4M25.5 29.1c4.4 2.8 8.9 5.2 13.6 7.1 4-9.3 9.5-17.9 16.5-25.4-11.8 3.2-22.1 9.6-30.1 18.3"/></svg>