<svg xmlns="http://www.w3.org/2000/svg" xml:space="preserve" width="144" height="127"><path fill="none" d="M0 0h144v127H0z"/><path fill="#868482" d="M144 90.3H0V0h144zM10.9 79.4h122.2V10.9H10.9z"/><path fill="#868482" d="M19.5 20.2h11.7v11.7H19.5zm18.6 0h11.7v11.7H38.1zm18.7 0h11.7v11.7H56.8zm18.7 0h11.7v11.7H75.5zm18.7 0h11.7v11.7H94.2zm18.7 0h11.7v11.7h-11.7zM19.5 39.7h11.7v11.7H19.5zm18.6 0h11.7v11.7H38.1zm18.7 0h11.7v11.7H56.8zm18.7 0h11.7v11.7H75.5zm18.7 0h11.7v11.7H94.2zm18.7 0h11.7v11.7h-11.7zM38.1 59.2h67.7v11.7H38.1zm33.9 56-9.8-7H45.9L72 126.9l26.1-18.7H81.8z"/></svg>