<svg xmlns="http://www.w3.org/2000/svg" width="52.5" height="52.5" viewBox="0 0 13.891 13.891"><path d="M6.945 1.94a.662.662 0 0 0-.573.331l-5.015 8.687a.662.662 0 0 0 .573.992h10.03a.662.662 0 0 0 .573-.992L7.518 2.27a.662.662 0 0 0-.573-.33m-.14 1.308a.41.41 0 0 1 .495.18l4.22 7.31a.41.41 0 0 1-.354.615H2.725a.41.41 0 0 1-.355-.614l4.22-7.311a.41.41 0 0 1 .215-.18" style="color:#000;fill:#fff;stroke-width:.0364612;stroke-linecap:round;stroke-linejoin:round;-inkscape-stroke:none"/><path d="M6.86 4.46h-.203l.198 4.594.013.308h.175l.014-.308.208-4.595z" data-name="Path 7935" style="fill:#fff;stroke:none;stroke-width:.264583"/><circle cx="6.961" cy="10.274" r=".304" data-name="Ellipse 1417" style="fill:#fff;stroke:none;stroke-width:.264583"/></svg>