<svg xmlns="http://www.w3.org/2000/svg" width="52.5" height="52.5" viewBox="0 0 13.891 13.891"><g transform="rotate(180 -133.188 -16.568)scale(.34894)"><path d="M773.459 125.74a14.476 14.476 0 0 1-3.647-15.89 14.476 14.476 0 0 1 13.454-9.206 14.476 14.476 0 0 1 13.49 9.153 14.476 14.476 0 0 1-3.582 15.903" style="fill:none;stroke:#fff;stroke-width:1.51651;stroke-linecap:square;stroke-miterlimit:4;stroke-dasharray:none;stroke-opacity:1" transform="scale(-1)"/><circle cx="783.391" cy="115.112" r="2.349" style="fill:none;stroke:#fff;stroke-width:1.51651;stroke-linecap:square;stroke-miterlimit:4;stroke-dasharray:none;stroke-opacity:1" transform="scale(-1)"/><path d="m-781.366-113.778 5.181 5.011" style="fill:none;stroke:#fff;stroke-width:1.51651;stroke-linecap:butt;stroke-linejoin:miter;stroke-miterlimit:4;stroke-dasharray:none;stroke-opacity:1"/><path d="m-768.457-99.136-1.675-3.66 3.762 1.454z" style="fill:none;stroke:#fff;stroke-width:2.17467;stroke-linecap:square;stroke-linejoin:miter;stroke-miterlimit:4;stroke-dasharray:none;stroke-opacity:1"/><path d="m-783.309-103.58.006 3.499m3.867-26.835h-7.447m14.921 11.708 3.499-.006m-4.797 5.442 3.016 1.774m-6.97 2.42 2.01 2.864m-22.944-12.398 3.499-.006m2.034 5.346-3.017 1.774m6.97 2.42-2.01 2.864m-2.748-17.55-3.015-1.774m23.482 1.631 3.016-1.775" style="fill:none;stroke:#fff;stroke-width:1.51651;stroke-linecap:butt;stroke-linejoin:miter;stroke-miterlimit:4;stroke-dasharray:none;stroke-opacity:1"/></g></svg>