<svg xmlns="http://www.w3.org/2000/svg" width="52.5" height="52.5" viewBox="0 0 13.891 13.891"><g style="display:inline"><path d="m-2158.588 9370.1-52.063 19.651-50.71-22.919-19.65-52.063 22.92-50.71 52.062-19.65 50.71 22.919 19.65 52.063z" style="fill:none;fill-opacity:1;stroke:#fffffc;stroke-width:6.72571;stroke-miterlimit:4;stroke-dasharray:none;stroke-opacity:1" transform="rotate(20.511 1831.172 828.901)scale(.07493)"/><g style="font-size:2.8231px;line-height:1.25;fill:#fff;stroke-width:.0705777"><path d="M-577.736 2460.756q0 .303-.258.493-.256.19-.697.19-.255 0-.446-.045-.189-.046-.354-.114v-.492h.058q.164.13.367.201.204.07.391.07.048 0 .127-.01t.128-.028q.06-.025.1-.062.04-.037.04-.11 0-.067-.059-.116-.056-.05-.166-.076-.116-.028-.246-.051-.128-.025-.241-.062-.26-.084-.374-.227-.113-.145-.113-.359 0-.287.257-.467.258-.182.661-.182.203 0 .4.04.199.039.343.098v.473h-.056q-.124-.1-.305-.166-.179-.068-.366-.068-.067 0-.133.01-.064.01-.125.033-.054.021-.093.063-.038.041-.038.095 0 .081.062.126.062.043.234.079l.217.045q.104.022.224.06.236.078.348.212.113.132.113.344zm1.968-1.01h-.64v1.655h-.53v-1.655h-.641v-.397h1.811zm2.315.63q0 .49-.282.78-.28.288-.777.288-.495 0-.776-.288-.281-.29-.281-.78 0-.495.281-.782.281-.288.776-.288.494 0 .776.288.283.287.283.781zm-.702.52q.077-.095.114-.221.038-.129.038-.3 0-.185-.043-.315t-.112-.21q-.07-.083-.162-.12-.091-.037-.19-.037-.101 0-.19.036t-.163.119q-.07.077-.113.214-.043.135-.043.314 0 .183.041.313.043.128.112.21.069.08.161.12.093.038.195.038.102 0 .194-.039.092-.04.161-.122m2.8-.899q0 .137-.048.27-.049.13-.138.22-.123.122-.275.184-.15.062-.375.062h-.329v.668h-.53v-2.052h.872q.196 0 .33.034.134.033.238.1.124.081.189.208.066.127.066.305zm-.548.012q0-.087-.046-.15-.047-.062-.11-.087-.082-.033-.16-.036h-.301v.614h.152q.135 0 .221-.016.089-.017.148-.066.05-.044.073-.104.023-.062.023-.15z" aria-label="STOP" style="font-weight:700;-inkscape-font-specification:&quot;sans-serif Bold&quot;" transform="translate(582.368 -2453.43)"/></g></g></svg>