<svg xmlns="http://www.w3.org/2000/svg" width="52.5" height="52.5" viewBox="0 0 13.891 13.891"><g transform="rotate(180 -133.194 -16.355)scale(.34894)"><path d="M768.82 113.558a14.475 14.476 0 0 1 7.42-12.515 14.475 14.476 0 0 1 14.547.254 14.475 14.476 0 0 1 6.978 12.766" style="fill:none;stroke:#fff;stroke-width:1.51651;stroke-linecap:square;stroke-miterlimit:4;stroke-dasharray:3.03302,6.06604;stroke-dashoffset:0;stroke-opacity:1" transform="scale(-1)"/><path d="M772.062-122.496a14.475 14.476 0 0 1 13.415-5.444 14.475 14.476 0 0 1 11.42 8.897" style="fill:none;stroke:#fff;stroke-width:1.51651;stroke-linecap:square;stroke-miterlimit:4;stroke-dasharray:none;stroke-opacity:1" transform="scale(-1 1)"/><circle cx="783.391" cy="113.675" r="2.349" style="fill:none;stroke:#fff;stroke-width:1.51651;stroke-linecap:square;stroke-miterlimit:4;stroke-dasharray:none;stroke-opacity:1" transform="scale(-1)"/><circle cx="797.619" cy="113.675" r="2.349" style="fill:#fff;fill-opacity:1;stroke:none;stroke-width:1.51651;stroke-linecap:square;stroke-miterlimit:4;stroke-dasharray:none;stroke-opacity:1" transform="scale(-1)"/><circle cx="768.938" cy="113.675" r="2.349" style="fill:#fff;fill-opacity:1;stroke:none;stroke-width:1.51651;stroke-linecap:square;stroke-miterlimit:4;stroke-dasharray:none;stroke-opacity:1" transform="scale(-1)"/><path d="M-781.685-113.618h7.208m-8.953 12.578-.001-10.95" style="fill:none;stroke:#fff;stroke-width:1.51651;stroke-linecap:butt;stroke-linejoin:miter;stroke-miterlimit:4;stroke-dasharray:none;stroke-opacity:1"/><path d="m-771.112-123.413.342 4.01-3.051-2.638z" style="fill:none;stroke:#fff;stroke-width:2.17467;stroke-linecap:square;stroke-linejoin:miter;stroke-miterlimit:4;stroke-dasharray:none;stroke-opacity:1"/></g></svg>