<svg xmlns="http://www.w3.org/2000/svg" width="52.5" height="52.5" viewBox="0 0 13.891 13.891"><path d="M-779.571-103.386h-7.448" style="fill:none;stroke:#fff;stroke-width:2.27475746;stroke-linecap:butt;stroke-linejoin:miter;stroke-miterlimit:4;stroke-dasharray:none;stroke-opacity:1" transform="rotate(180 -133.188 -16.568)scale(.34894)"/><path d="M-779.571-127.131h-7.448" style="fill:none;stroke:#fff;stroke-width:4.54951491;stroke-linecap:butt;stroke-linejoin:miter;stroke-miterlimit:4;stroke-dasharray:none;stroke-opacity:1" transform="rotate(180 -133.188 -16.568)scale(.34894)"/><path d="M-783.295-103.578v-23.744m13.675-.542c.185 1.33-.392 2.005-.947 3.114-.22.441-.018.425-.406.813-.072.071-.2.064-.271.135-.072.072-.055.21-.136.271-.67.503-1.772.585-2.437 1.083-.18.136-.213.426-.406.542-.282.169-.636.167-.948.27-.408.137-.66.445-1.083.542-.65.15-1.794.22-2.437.542-.229.114-.338.388-.542.542-.18.135-.514.297-.677.541-.112.168-.128.399-.27.542-.033.032-.104-.032-.136 0-.417.417-.78 1.119-1.083 1.625-.238.395-.484.89-.813 1.218-.071.072-.2.064-.27.136-.082.081-.279.445-.407.541-.114.086-.284.062-.406.136-1.242.745 1.265-.362-.812.677-.081.04-.19-.04-.271 0-.481.24-.668.67-1.083.947-.465.31-.973.583-1.49.813-.483.214-1.017.305-1.49.541-.04.02.033.104 0 .136-.553.554-1.038.948-1.489 1.625-.135.203-.27.135-.406.406-.191.383-.215.836-.406 1.219-.262.524-.915.684-1.354.947-.62.372-1.061.932-1.625 1.354-.08.061-.215.052-.27.136-.05.075.021.183 0 .27-.06.24-.32.474-.407.678-.187.436-.135.947-.406 1.354-.144.216-.376.24-.542.406-.188.188-.39.62-.677.812-.88.587-2.03 1.476-2.03 2.573" style="fill:none;stroke:#fff;stroke-width:1.51650497;stroke-linecap:butt;stroke-linejoin:miter;stroke-opacity:1;stroke-miterlimit:4;stroke-dasharray:none" transform="rotate(180 -133.188 -16.568)scale(.34894)"/></svg>