<svg xmlns="http://www.w3.org/2000/svg" width="30.262" height="18"><g data-name="Group 2624"><path fill="#282b2c" d="M-.003 12.48V18h28.115v-6.855a2.038 2.038 0 0 0 2.146-2.122 2.058 2.058 0 0 0-2.125-2.168h-.02V-.002H-.003v12.48ZM27.279.915v16.25H.835V.835h26.447Z" data-name="Path 8225"/><g style="font-size:18px;line-height:1.25;font-family:&quot;Frutiger LT 55 Roman&quot;;-inkscape-font-specification:&quot;Frutiger LT 55 Roman, &quot;;letter-spacing:0;word-spacing:0"><path d="M369.7 303.485h2.017v2.016H369.7zm.163-1.89q0-.432.054-.756.054-.342.18-.648.144-.306.342-.594.216-.306.54-.684.234-.288.504-.594t.486-.648q.234-.342.378-.72.144-.396.144-.828 0-.468-.18-.81t-.486-.558q-.306-.234-.702-.342-.378-.108-.81-.108-.9 0-1.566.198-.648.198-1.098.522l-.126-1.71q.594-.252 1.332-.414.738-.18 1.656-.18.738 0 1.44.216.702.198 1.242.612t.864 1.026q.342.612.342 1.422 0 .702-.252 1.278-.252.558-.63 1.062-.36.486-.792.972-.432.486-.792 1.026-.216.324-.306.63-.072.306-.072.684v.324h-1.692z" aria-label="?" style="font-size:18px" transform="translate(-361.903 -290.112)"/></g><g style="font-size:18px;line-height:1.25;font-family:&quot;Frutiger LT 55 Roman&quot;;-inkscape-font-specification:&quot;Frutiger LT 55 Roman, &quot;;letter-spacing:0;word-spacing:0"><path d="M379.837 303.485h2.016v2.016h-2.016zm.162-1.89q0-.432.054-.756.054-.342.18-.648.144-.306.342-.594.216-.306.54-.684.234-.288.504-.594t.486-.648q.234-.342.378-.72.144-.396.144-.828 0-.468-.18-.81t-.486-.558q-.306-.234-.702-.342-.378-.108-.81-.108-.9 0-1.566.198-.648.198-1.098.522l-.126-1.71q.594-.252 1.332-.414.738-.18 1.656-.18.738 0 1.44.216.702.198 1.242.612t.864 1.026q.342.612.342 1.422 0 .702-.252 1.278-.252.558-.63 1.062-.36.486-.792.972-.432.486-.792 1.026-.216.324-.306.63-.072.306-.072.684v.324H380z" aria-label="?" style="font-size:18px" transform="translate(-361.903 -290.112)"/></g></g></svg>