<svg xmlns="http://www.w3.org/2000/svg" xml:space="preserve" width="42.75" height="19" version="1.0"><path d="m42.75 9.5-4.749-2.742v1.957H13.727l4.727-4.994c.402-.322.928-.548 1.47-.56 2.19 0 3.49-.001 3.97-.002a2.368 2.368 0 0 0 2.231 1.591 2.376 2.376 0 0 0 0-4.75 2.368 2.368 0 0 0-2.232 1.59H19.97c-1.063 0-2.177.583-2.886 1.267.02-.02.04-.042-.001 0l-5.015 5.298c-.401.322-.927.547-1.468.56H7.854a3.966 3.966 0 1 0 0 1.568h8.686c.54.014 1.065.239 1.466.561a34865.973 34865.973 0 0 0 5.015 5.298c.709.684 1.823 1.267 2.887 1.267l3.78-.001V19h4.75v-4.75h-4.75v1.59l-3.827-.001c-.541-.013-1.068-.239-1.47-.561l-4.727-4.995H38v1.96z" style="fill:#fff;stroke-width:.0949109"/></svg>