<svg xmlns="http://www.w3.org/2000/svg" width="37.939" height="18.97"><g fill="#fff" data-name="Groupe 2413" transform="translate(-832.746 -30.988)"><circle cx="3.162" cy="3.162" r="3.162" data-name="Ellipse 109" transform="translate(832.746 30.988)"/><circle cx="3.162" cy="3.162" r="3.162" data-name="Ellipse 110" transform="translate(839.069 43.634)"/><circle cx="3.162" cy="3.162" r="3.162" data-name="Ellipse 111" transform="translate(845.392 30.988)"/><circle cx="3.162" cy="3.162" r="3.162" data-name="Ellipse 112" transform="translate(851.715 43.634)"/><circle cx="3.162" cy="3.162" r="3.162" data-name="Ellipse 113" transform="translate(858.039 30.988)"/><circle cx="3.162" cy="3.162" r="3.162" data-name="Ellipse 114" transform="translate(864.362 43.634)"/><path d="M868.022 46.547 861.7 33.9l-.5.249-.5-.249-5.825 11.649-5.822-11.649-.5.249-.5-.249-5.825 11.649-5.822-11.649-1 .5 6.323 12.647.5-.249.5.249 5.825-11.647 5.824 11.649.5-.249.5.249L861.2 35.4l5.824 11.649Z" data-name="Tracé 1639"/></g></svg>