<svg xmlns="http://www.w3.org/2000/svg" width="24.894" height="18.004"><g fill="#282b2c" data-name="Group 2618"><path d="M2.244 1.434h-.541v13.577l.541-.389Z" data-name="Path 8098"/><path d="M3.871 1.434H2.79v12.8l1.081-.777Z" data-name="Path 8099"/><path d="M5.488 16.57h.541v-1.335l-.541.389Z" data-name="Path 8100"/><path d="M6.028 1.434h-.541V12.29l.541-.389Z" data-name="Path 8101"/><path d="M8.731 16.57h1.081v-4.055l-1.081.777Z" data-name="Path 8102"/><path d="M9.812 1.434H8.731v8.524l1.081-.777Z" data-name="Path 8103"/><path d="M10.353 16.57h.541v-4.833l-.541.389Z" data-name="Path 8104"/><path d="M10.893 1.434h-.541v7.358l.541-.389Z" data-name="Path 8105"/><path d="M11.971 1.434h-.541v6.58l.541-.389Z" data-name="Path 8106"/><path d="M11.434 16.57h.541v-5.61l-.541.389Z" data-name="Path 8107"/><path d="M15.758 1.434h-2.162V6.46l2.162-1.555Z" data-name="Path 8108"/><path d="M13.596 16.57h2.162V8.239l-2.162 1.555Z" data-name="Path 8109"/><path d="M19.001 1.434H17.92V3.35l1.081-.777Z" data-name="Path 8110"/><path d="M17.92 16.57h1.081V5.907l-1.081.777Z" data-name="Path 8111"/><path d="M20.623 16.57h1.622v-13l-1.622 1.166Z" data-name="Path 8112"/><path d="M22.785 16.57h.541V2.797l-.541.389Z" data-name="Path 8113"/><path d="M24.406 18.004H2.671a.353.353 0 1 1 0-.705h21.384V2.02a.353.353 0 1 1 .705 0v15.631a.353.353 0 0 1-.354.353" data-name="Path 8097"/><path d="M.353 16.337A.354.354 0 0 1 0 15.984V.353A.353.353 0 0 1 .353 0h21.735a.353.353 0 1 1 0 .706H.705v15.278a.353.353 0 0 1-.352.353" data-name="Path 8096"/><path d="M.488 18.003a.353.353 0 0 1-.206-.639L24.336.064a.353.353 0 0 1 .412.573L.694 17.937a.358.358 0 0 1-.206.066" data-name="Path 8114"/></g></svg>