<svg xmlns="http://www.w3.org/2000/svg" width="24.5" height="18"><g fill="#282b2c" data-name="Group 2617"><path d="M2.057 1.787h.541v14.426h-.541z" data-name="Rectangle 2025"/><path d="M3.138 1.787h1.081v14.426H3.138z" data-name="Rectangle 2026"/><path d="M5.614 1.787h.541v14.426h-.541z" data-name="Rectangle 2027"/><path d="M8.724 1.787h1.081v14.426H8.724z" data-name="Rectangle 2028"/><path d="M10.291 1.787h.541v14.426h-.541z" data-name="Rectangle 2029"/><path d="M11.33 1.787h.541v14.426h-.541z" data-name="Rectangle 2030"/><path d="M13.371 1.787h2.162v14.426h-2.162z" data-name="Rectangle 2031"/><path d="M17.55 1.787h1.081v14.426H17.55z" data-name="Rectangle 2032"/><path d="M20.011 1.787h1.622v14.426h-1.622z" data-name="Rectangle 2033"/><path d="M22.173 1.787h.541v14.426h-.541z" data-name="Rectangle 2034"/><path d="M23.821.679v16.642H.678V.679zm0-.679H.678A.679.679 0 0 0 0 .679v16.642A.679.679 0 0 0 .678 18h23.143a.679.679 0 0 0 .679-.679V.679A.679.679 0 0 0 23.821 0" data-name="Path 8089"/></g></svg>